<svg width="1160" height="208" viewBox="0 0 1160 208" fill="none" xmlns="http://www.w3.org/2000/svg">
<g clip-path="url(#clip0)">
<path d="M962.158 194.778L955.589 188.21L945.737 198.063V204.631H952.305L962.158 194.778Z" stroke="#D8DBEB" stroke-width="2" stroke-miterlimit="10" stroke-linecap="round" stroke-linejoin="round"/>
<path d="M934.789 193.684H929.316" stroke="#D8DBEB" stroke-width="2" stroke-miterlimit="10" stroke-linecap="round" stroke-linejoin="round"/>
<path d="M945.737 182.736H929.316" stroke="#D8DBEB" stroke-width="2" stroke-miterlimit="10" stroke-linecap="round" stroke-linejoin="round"/>
<path d="M932.053 171.79H929.316" stroke="#D8DBEB" stroke-width="2" stroke-miterlimit="10" stroke-linecap="round" stroke-linejoin="round"/>
<path d="M934.789 204.632H923.842C920.832 204.632 918.368 202.169 918.368 199.158V160.842C918.368 157.832 920.832 155.369 923.842 155.369H940.263" stroke="#D8DBEB" stroke-width="2" stroke-miterlimit="10" stroke-linecap="round" stroke-linejoin="round"/>
<path d="M956.684 171.79V177.263" stroke="#D8DBEB" stroke-width="2" stroke-miterlimit="10" stroke-linecap="round" stroke-linejoin="round"/>
<path d="M956.684 171.789H945.737C942.726 171.789 940.263 169.326 940.263 166.316V155.368L956.684 171.789Z" stroke="#D8DBEB" stroke-width="2" stroke-miterlimit="10" stroke-linecap="round" stroke-linejoin="round"/>
</g>
<g clip-path="url(#clip1)">
<path d="M29.1668 8.1665C17.5001 8.1665 8.16675 17.4998 8.16675 29.1665C8.16675 34.9998 10.5001 40.1332 14.2334 44.0998L8.16675 50.1665H29.1668C40.8334 50.1665 50.1668 40.8332 50.1668 29.1665C50.1668 17.4998 40.8334 8.1665 29.1668 8.1665Z" stroke="#D8DBEB" stroke-width="2" stroke-miterlimit="10" stroke-linecap="round" stroke-linejoin="round"/>
<path d="M29.1667 30.3333C29.811 30.3333 30.3333 29.811 30.3333 29.1667C30.3333 28.5223 29.811 28 29.1667 28C28.5223 28 28 28.5223 28 29.1667C28 29.811 28.5223 30.3333 29.1667 30.3333Z" fill="#D8DBEB"/>
<path d="M22.1667 30.3333C22.811 30.3333 23.3333 29.811 23.3333 29.1667C23.3333 28.5223 22.811 28 22.1667 28C21.5223 28 21 28.5223 21 29.1667C21 29.811 21.5223 30.3333 22.1667 30.3333Z" fill="#D8DBEB"/>
<path d="M36.1667 30.3333C36.811 30.3333 37.3333 29.811 37.3333 29.1667C37.3333 28.5223 36.811 28 36.1667 28C35.5223 28 35 28.5223 35 29.1667C35 29.811 35.5223 30.3333 36.1667 30.3333Z" fill="#D8DBEB"/>
</g>
<g clip-path="url(#clip2)">
<path d="M35.1668 178.833L25.8334 188.166L21.1667 183.5" stroke="#D8DBEB" stroke-width="2" stroke-miterlimit="10" stroke-linecap="round" stroke-linejoin="round"/>
<path d="M28.1668 167.167L27.0001 163.433C26.3001 161.567 24.6668 160.167 22.5668 160.167H11.8334C9.26675 160.167 7.16675 162.267 7.16675 164.833V195.167C7.16675 197.733 9.26675 199.833 11.8334 199.833H44.5001C47.0668 199.833 49.1668 197.733 49.1668 195.167V171.833C49.1668 169.267 47.0668 167.167 44.5001 167.167H28.1668Z" stroke="#D8DBEB" stroke-width="2" stroke-miterlimit="10" stroke-linecap="round" stroke-linejoin="round"/>
</g>
<path d="M209.5 18.4312C207.867 19.5979 206.467 20.7646 205.3 22.3979C202.733 25.4312 201.333 29.3979 201.333 33.8312C201.333 41.7645 206.233 48.2979 213 51.0979C211.6 46.1979 212.533 41.0645 214.867 36.8646C215.1 37.7979 215.1 38.4979 215.333 39.4312C216.967 45.0312 220.933 49.4646 225.833 51.5646C233.3 49.2312 238.667 41.9979 238.667 33.8312C238.667 28.6979 236.567 24.0312 233.3 20.7646C231.433 24.4979 227.933 27.5312 223.967 28.6979C225.367 26.1312 226.067 23.3312 226.067 20.2979C226.067 18.8979 225.833 17.2646 225.6 16.0979C224.2 11.1979 220.933 6.99788 216.733 4.66455C216.5 10.0312 213.933 14.6979 210.2 17.7312L209.5 18.4312Z" stroke="#D8DBEB" stroke-width="2" stroke-miterlimit="10" stroke-linecap="round" stroke-linejoin="round"/>
<g clip-path="url(#clip3)">
<path d="M317.167 125.835C328.765 125.835 338.167 116.433 338.167 104.835C338.167 93.2375 328.765 83.8354 317.167 83.8354C305.569 83.8354 296.167 93.2375 296.167 104.835C296.167 116.433 305.569 125.835 317.167 125.835Z" stroke="#D8DBEB" stroke-width="2" stroke-miterlimit="10" stroke-linecap="round" stroke-linejoin="round"/>
<path d="M317.167 97.8354V111.835" stroke="#D8DBEB" stroke-width="2" stroke-miterlimit="10" stroke-linecap="round" stroke-linejoin="round"/>
<path d="M310.167 104.835L317.167 97.8354L324.167 104.835" stroke="#D8DBEB" stroke-width="2" stroke-miterlimit="10" stroke-linecap="round" stroke-linejoin="round"/>
</g>
<g clip-path="url(#clip4)">
<path d="M125.167 89.9976C120.267 85.3309 112.567 85.3309 107.667 89.9976C103 94.8976 103 102.598 107.667 107.498L112.1 111.931L121.9 121.731C123.767 123.598 126.567 123.598 128.433 121.731L142.433 107.731C147.333 102.598 147.333 94.8976 142.667 89.9976C137.767 85.3309 130.067 85.3309 125.167 89.9976Z" stroke="#D8DBEB" stroke-width="2" stroke-miterlimit="10" stroke-linecap="round" stroke-linejoin="round"/>
</g>
<g clip-path="url(#clip5)">
<path d="M434.167 20.2998L413.167 32.4332L392.167 20.2998L413.167 8.1665L434.167 20.2998Z" stroke="#D8DBEB" stroke-width="2" stroke-miterlimit="10" stroke-linecap="round" stroke-linejoin="round"/>
<path d="M434.167 29.6333L413.167 41.7666L392.167 29.6333" stroke="#D8DBEB" stroke-width="2" stroke-miterlimit="10" stroke-linecap="round" stroke-linejoin="round"/>
<path d="M434.167 38.9663L413.167 51.0996L392.167 38.9663" stroke="#D8DBEB" stroke-width="2" stroke-miterlimit="10" stroke-linecap="round" stroke-linejoin="round"/>
</g>
<g clip-path="url(#clip6)">
<path d="M233.767 187.233L239.834 181.167L233.767 175.1V166.233H224.901L218.834 160.167L212.767 166.233H203.901V175.1L197.834 181.167L203.901 187.233V196.1H212.767L218.834 202.167L224.901 196.1H233.767V187.233Z" stroke="#D8DBEB" stroke-width="2" stroke-miterlimit="10" stroke-linecap="round" stroke-linejoin="round"/>
<path d="M218.834 176.5V185.833" stroke="#D8DBEB" stroke-width="2" stroke-miterlimit="10" stroke-linecap="round" stroke-linejoin="round"/>
<path d="M223.501 181.167H214.167" stroke="#D8DBEB" stroke-width="2" stroke-miterlimit="10" stroke-linecap="round" stroke-linejoin="round"/>
</g>
<g clip-path="url(#clip7)">
<path d="M734.233 35.2332L728.166 29.1665L734.233 23.0998L734.233 14.2332L743.099 14.2332L749.166 8.1665L755.233 14.2332L764.099 14.2332L764.099 23.0998L770.166 29.1665L764.099 35.2332L764.099 44.0998L755.233 44.0998L749.166 50.1665L743.099 44.0998L734.233 44.0998L734.233 35.2332Z" stroke="#D8DBEB" stroke-width="2" stroke-miterlimit="10" stroke-linecap="round" stroke-linejoin="round"/>
<path d="M749.166 24.5L749.166 33.8333" stroke="#D8DBEB" stroke-width="2" stroke-miterlimit="10" stroke-linecap="round" stroke-linejoin="round"/>
<path d="M744.499 29.1665L753.833 29.1665" stroke="#D8DBEB" stroke-width="2" stroke-miterlimit="10" stroke-linecap="round" stroke-linejoin="round"/>
</g>
<g clip-path="url(#clip8)">
<path d="M866.167 125.831H824.167" stroke="#D8DBEB" stroke-width="2" stroke-miterlimit="10" stroke-linecap="round" stroke-linejoin="round"/>
<path d="M847.5 116.498H838.167C833.033 116.498 828.833 112.298 828.833 107.164V88.4976H856.833V107.164C856.833 112.298 852.633 116.498 847.5 116.498Z" stroke="#D8DBEB" stroke-miterlimit="10" stroke-linecap="round" stroke-linejoin="round"/>
<path d="M847.5 116.498H838.167C833.033 116.498 828.833 112.298 828.833 107.164V88.4976H856.833V107.164C856.833 112.298 852.633 116.498 847.5 116.498Z" stroke="#D8DBEB" stroke-width="2" stroke-miterlimit="10" stroke-linecap="round" stroke-linejoin="round"/>
<path d="M866.167 97.8307C866.167 100.397 864.067 102.497 861.5 102.497H856.833V93.1641H861.5C864.067 93.1641 866.167 95.2641 866.167 97.8307Z" stroke="#D8DBEB" stroke-width="2" stroke-miterlimit="10" stroke-linecap="round" stroke-linejoin="round"/>
</g>
<g clip-path="url(#clip9)">
<path d="M1133.33 32.5015V34.8348" stroke="#D8DBEB" stroke-width="2" stroke-miterlimit="10" stroke-linecap="round" stroke-linejoin="round"/>
<path d="M1124 34.835V37.1683" stroke="#D8DBEB" stroke-width="2" stroke-miterlimit="10" stroke-linecap="round" stroke-linejoin="round"/>
<path d="M1124 46.5015V48.8348" stroke="#D8DBEB" stroke-width="2" stroke-miterlimit="10" stroke-linecap="round" stroke-linejoin="round"/>
<path d="M1133.33 44.1685V46.5018" stroke="#D8DBEB" stroke-width="2" stroke-miterlimit="10" stroke-linecap="round" stroke-linejoin="round"/>
<path d="M1142.43 25.035C1142.9 25.2683 1143.6 25.2683 1144.07 25.2683C1148.5 25.2683 1152.23 22.235 1153.17 18.035C1152.47 18.2683 1151.77 18.2683 1151.07 18.2683C1145.93 18.2683 1141.73 14.0683 1141.73 8.93496C1141.73 8.23496 1141.73 7.53496 1141.97 6.83496C1137.77 7.76829 1134.73 11.5016 1134.73 15.935C1134.73 16.635 1134.73 17.335 1134.97 18.035" stroke="#D8DBEB" stroke-width="2" stroke-miterlimit="10" stroke-linecap="round" stroke-linejoin="round"/>
<path d="M1114.67 39.0351C1112.57 38.1018 1111.17 36.0018 1111.17 33.6685C1111.17 30.4018 1113.73 27.8351 1117 27.8351C1117 21.3018 1122.13 16.1685 1128.67 16.1685C1133.8 16.1685 1138.23 19.4351 1139.63 24.1018C1143.37 24.8018 1146.17 27.8351 1146.17 31.8018C1146.17 34.6018 1144.77 36.9351 1142.67 38.3351" stroke="#D8DBEB" stroke-width="2" stroke-miterlimit="10" stroke-linecap="round" stroke-linejoin="round"/>
</g>
<g clip-path="url(#clip10)">
<path d="M1150.5 203.503L1113.17 203.503C1110.6 203.503 1108.5 201.403 1108.5 198.836L1108.5 161.503C1108.5 158.936 1110.6 156.836 1113.17 156.836L1150.5 156.836C1153.07 156.836 1155.17 158.936 1155.17 161.503L1155.17 198.836C1155.17 201.403 1153.07 203.503 1150.5 203.503Z" stroke="#D8DBEB" stroke-width="2" stroke-miterlimit="10" stroke-linecap="round" stroke-linejoin="round"/>
<path d="M1131.83 203.503L1131.83 156.836" stroke="#D8DBEB" stroke-width="2" stroke-miterlimit="10" stroke-linecap="round" stroke-linejoin="round"/>
<path d="M1108.5 180.17L1155.17 180.17" stroke="#D8DBEB" stroke-width="2" stroke-miterlimit="10" stroke-linecap="round" stroke-linejoin="round"/>
<path d="M1120.17 172.003L1120.17 165.003" stroke="#D8DBEB" stroke-width="2" stroke-miterlimit="10" stroke-linecap="round" stroke-linejoin="round"/>
<path d="M1116.67 168.503L1123.67 168.503" stroke="#D8DBEB" stroke-width="2" stroke-miterlimit="10" stroke-linecap="round" stroke-linejoin="round"/>
<path d="M1140 168.503L1147 168.503" stroke="#D8DBEB" stroke-width="2" stroke-miterlimit="10" stroke-linecap="round" stroke-linejoin="round"/>
<path d="M1116.9 188.57L1123.43 195.103" stroke="#D8DBEB" stroke-width="2" stroke-miterlimit="10" stroke-linecap="round" stroke-linejoin="round"/>
<path d="M1123.43 188.57L1116.9 195.103" stroke="#D8DBEB" stroke-width="2" stroke-miterlimit="10" stroke-linecap="round" stroke-linejoin="round"/>
<path d="M1140 188.336L1147 188.336" stroke="#D8DBEB" stroke-width="2" stroke-miterlimit="10" stroke-linecap="round" stroke-linejoin="round"/>
<path d="M1140 195.336L1147 195.336" stroke="#D8DBEB" stroke-width="2" stroke-miterlimit="10" stroke-linecap="round" stroke-linejoin="round"/>
</g>
<g clip-path="url(#clip11)">
<path d="M1052.5 93.8036V86.1036C1051.1 86.3369 1049.7 86.5702 1048.07 86.5702C1043.63 86.5702 1039.43 85.1702 1036.17 82.8369C1032.67 85.1702 1028.7 86.5702 1024.27 86.5702C1022.87 86.5702 1021.23 86.3369 1019.83 86.1036V93.8036V103.604C1019.83 109.67 1022.63 115.27 1027.77 118.77L1036.17 124.837L1044.57 118.77C1049.47 115.27 1052.5 109.67 1052.5 103.604V93.8036Z" stroke="#D8DBEB" stroke-width="2" stroke-miterlimit="10" stroke-linecap="round" stroke-linejoin="round"/>
<path d="M1041.53 99.8701L1033.37 107.803L1029.87 104.07" stroke="#D8DBEB" stroke-width="2" stroke-miterlimit="10" stroke-linecap="round" stroke-linejoin="round"/>
</g>
<g clip-path="url(#clip12)">
<path d="M921.924 17.5636C919.347 22.0276 925.4 30.3473 935.444 36.1463C945.488 41.9453 955.719 43.0276 958.296 38.5636C960.874 34.0997 954.821 25.7799 944.777 19.981C934.733 14.182 924.502 13.0997 921.924 17.5636Z" stroke="#D8DBEB" stroke-width="2" stroke-miterlimit="10" stroke-linecap="round" stroke-linejoin="round"/>
<path d="M935.485 20.0236C925.441 25.8226 919.389 34.1424 921.966 38.6063C924.543 43.0702 934.775 41.988 944.819 36.189C954.862 30.39 960.915 22.0702 958.338 17.6063C955.761 13.1424 945.529 14.2246 935.485 20.0236Z" stroke="#D8DBEB" stroke-width="2" stroke-miterlimit="10" stroke-linecap="round" stroke-linejoin="round"/>
<path d="M940.167 25.8294C938.878 25.8294 937.833 26.8741 937.833 28.1628C937.833 29.4514 938.878 30.4961 940.167 30.4961C941.455 30.4961 942.5 29.4514 942.5 28.1628C942.5 26.8741 941.455 25.8294 940.167 25.8294Z" stroke="#D8DBEB" stroke-width="2"/>
<path d="M940.167 7.16257C935.012 7.16257 930.833 16.5646 930.833 28.1626C930.833 39.7606 935.012 49.1626 940.167 49.1626C945.321 49.1626 949.5 39.7606 949.5 28.1626C949.5 16.5646 945.321 7.16257 940.167 7.16257Z" stroke="#D8DBEB" stroke-width="2" stroke-miterlimit="10" stroke-linecap="round" stroke-linejoin="round"/>
</g>
<defs>
<clipPath id="clip0">
<rect x="917" y="154" width="46.5263" height="52" fill="white"/>
</clipPath>
<clipPath id="clip1">
<rect x="7" y="7" width="44.3333" height="44.3333" fill="white"/>
</clipPath>
<clipPath id="clip2">
<rect x="6" y="159" width="44.3334" height="42" fill="white"/>
</clipPath>
<clipPath id="clip3">
<rect x="295" y="82.6689" width="44.3333" height="44.3333" fill="white"/>
</clipPath>
<clipPath id="clip4">
<rect x="103" y="85.3311" width="44.3333" height="38.7333" fill="white"/>
</clipPath>
<clipPath id="clip5">
<rect x="391" y="7" width="44.3333" height="45.2667" fill="white"/>
</clipPath>
<clipPath id="clip6">
<rect x="196.667" y="159" width="44.3333" height="44.3333" fill="white"/>
</clipPath>
<clipPath id="clip7">
<rect width="44.3333" height="44.3333" transform="matrix(-1 -1.74846e-07 -1.74846e-07 1 771.333 7)" fill="white"/>
</clipPath>
<clipPath id="clip8">
<rect x="823" y="87.3311" width="44.3333" height="39.6667" fill="white"/>
</clipPath>
<clipPath id="clip9">
<rect x="1110" y="5.66846" width="44.3333" height="44.3333" fill="white"/>
</clipPath>
<clipPath id="clip10">
<rect x="1107.33" y="155.67" width="49" height="49" fill="white"/>
</clipPath>
<clipPath id="clip11">
<rect x="1018.67" y="81.6704" width="35" height="44.3333" fill="white"/>
</clipPath>
<clipPath id="clip12">
<rect x="960" y="50.3291" width="39.9" height="44.3333" transform="rotate(-180 960 50.3291)" fill="white"/>
</clipPath>
</defs>
</svg>
